<svg width="50" height="65" viewBox="0 0 50 65" fill="none" xmlns="http://www.w3.org/2000/svg">
<rect x="12.2093" y="53.6628" width="24.9419" height="2.26744" fill="#9686A3"/>
<path fill-rule="evenodd" clip-rule="evenodd" d="M37 46.9371C44.7474 42.6901 50 34.4584 50 25C50 11.1929 38.8071 0 25 0C11.1929 0 0 11.1929 0 25C0 34.0456 4.80408 41.9691 12 46.3584V53H37V46.9371Z" fill="#333643"/>
<rect x="12.9651" y="56.686" width="22.6744" height="2.26744" fill="#9686A3"/>
<rect x="13.7209" y="59.7093" width="21.1628" height="2.26744" fill="#9686A3"/>
<rect x="15.2326" y="62.7326" width="18.8953" height="2.26744" fill="#9686A3"/>
<path fill-rule="evenodd" clip-rule="evenodd" d="M7.64353 24.186C8.5039 14.8589 15.7687 7.38716 25 6.20858V3.99999C13.9543 3.99999 5.00002 12.9543 5.00002 24C5.00002 24.0621 5.00031 24.1241 5.00087 24.186H7.64353Z" fill="#9686A3"/>
</svg>
