<?xml version="1.0" standalone="no"?>
<!DOCTYPE svg PUBLIC "-//W3C//DTD SVG 20010904//EN"
 "http://www.w3.org/TR/2001/REC-SVG-20010904/DTD/svg10.dtd">
<svg version="1.0" xmlns="http://www.w3.org/2000/svg"
 width="270.000000pt" height="270.000000pt" viewBox="0 0 270.000000 270.000000"
 preserveAspectRatio="xMidYMid meet">
<metadata>
Created by potrace 1.14, written by Peter Selinger 2001-2017
</metadata>
<g transform="translate(0.000000,270.000000) scale(0.100000,-0.100000)"
fill="#000000" stroke="none">
<path d="M2245 2350 c-80 -34 -191 -74 -197 -72 -5 1 -8 -2 -8 -8 0 -5 -6 -10
-14 -10 -18 0 -264 -97 -293 -116 -15 -9 -24 -28 -28 -58 l-7 -45 -67 53
c-188 149 -361 214 -596 222 -183 6 -320 -23 -484 -103 -186 -91 -360 -268
-451 -458 -73 -154 -101 -286 -95 -460 4 -135 22 -231 62 -332 58 -145 113
-231 221 -342 138 -141 316 -239 512 -281 127 -27 322 -21 454 14 340 92 606
348 704 681 20 68 25 93 38 200 3 28 7 51 8 52 2 2 50 -10 107 -26 168 -46
150 -47 206 7 27 26 113 107 190 181 82 77 144 145 148 159 9 36 -12 51 -150
112 -66 29 -138 60 -160 70 -22 10 -48 21 -59 24 -17 6 -18 14 -11 97 3 50 8
98 10 107 7 36 19 190 19 251 1 53 -2 65 -19 76 -13 8 -27 10 -40 5z"/>
</g>
</svg>
